<?xml version="1.0" encoding="UTF-8" standalone="no"?>
<svg
   xmlns:dc="http://purl.org/dc/elements/1.1/"
   xmlns:cc="http://creativecommons.org/ns#"
   xmlns:rdf="http://www.w3.org/1999/02/22-rdf-syntax-ns#"
   xmlns:svg="http://www.w3.org/2000/svg"
   xmlns="http://www.w3.org/2000/svg"
   xmlns:sodipodi="http://sodipodi.sourceforge.net/DTD/sodipodi-0.dtd"
   xmlns:inkscape="http://www.inkscape.org/namespaces/inkscape"
   version="1.1"
   id="Calque_1"
   x="0px"
   y="0px"
   viewBox="0 0 266.16505 266.16505"
   xml:space="preserve"
   sodipodi:docname="malt.svg"
   inkscape:version="1.0.2 (e86c8708, 2021-01-15)"
   width="70.422836mm"
   height="70.422836mm"><metadata
   id="metadata868"><rdf:RDF><cc:Work
       rdf:about=""><dc:format>image/svg+xml</dc:format><dc:type
         rdf:resource="http://purl.org/dc/dcmitype/StillImage" /><dc:title></dc:title></cc:Work></rdf:RDF></metadata><defs
   id="defs866" /><sodipodi:namedview
   pagecolor="#ffffff"
   bordercolor="#666666"
   borderopacity="1"
   objecttolerance="10"
   gridtolerance="10"
   guidetolerance="10"
   inkscape:pageopacity="0"
   inkscape:pageshadow="2"
   inkscape:window-width="1301"
   inkscape:window-height="622"
   id="namedview864"
   showgrid="false"
   inkscape:zoom="1.0275"
   inkscape:cx="289.60894"
   inkscape:cy="199.45679"
   inkscape:window-x="51"
   inkscape:window-y="25"
   inkscape:window-maximized="0"
   inkscape:current-layer="Calque_1"
   inkscape:document-rotation="0"
   units="mm"
   width="500mm"
   fit-margin-top="0"
   fit-margin-left="0"
   fit-margin-right="0"
   fit-margin-bottom="0" />
<style
   type="text/css"
   id="style833">
	.st0{fill:#FC5656;}
</style>
<g
   id="g861"
   transform="translate(9.3169684,-18.84856)">
	<path
   class="st0"
   d="m 187.518,84.731 c -14.1,-14.1 -29.162,-4.974 -38.588,4.452 l -44.52,44.523 -44.525,44.524 c -9.426,9.425 -19.292,23.746 -4.452,38.584 14.84,14.843 29.161,4.975 38.585,-4.451 l 44.523,-44.523 44.523,-44.522 c 9.427,-9.427 18.552,-24.489 4.454,-38.587"
   id="path835" />
	<path
   class="st0"
   d="M 102.445,81.084 121.3,99.938 140.492,80.746 c 1.303,-1.306 2.626,-2.518 3.957,-3.661 -2.01,-10.14 -7.796,-19.307 -23.158,-19.307 -15.391,0 -21.17,9.203 -23.168,19.365 1.436,1.243 2.871,2.489 4.322,3.941"
   id="path837" />
	<path
   class="st0"
   d="m 140.482,221.137 -19.18,-19.181 -18.845,18.843 c -1.431,1.432 -2.855,2.74 -4.273,3.969 2.161,10.337 8.277,19.805 23.11,19.805 14.872,0 20.98,-9.519 23.127,-19.889 -1.319,-1.135 -2.64,-2.248 -3.939,-3.547"
   id="path839" />
	<path
   class="st0"
   d="m 94.449,126.791 h -36.35 c -13.329,0 -30.433,4.198 -30.433,24.136 0,14.877 9.522,20.986 19.894,23.132 1.228,-1.417 46.889,-47.268 46.889,-47.268"
   id="path841" />
	<path
   class="st0"
   d="m 195.101,127.759 c -1.151,1.338 -46.907,47.305 -46.907,47.305 h 35.834 c 13.329,0 30.433,-3.149 30.433,-24.136 0,-15.389 -9.2,-21.171 -19.36,-23.169"
   id="path843" />
	<path
   class="st0"
   d="m 106.359,114.859 6.494,-6.494 L 94.01,89.52 C 84.583,80.095 70.264,70.228 55.424,85.068 c -10.882,10.882 -8.465,21.473 -2.693,30.071 1.758,-0.131 53.628,-0.28 53.628,-0.28"
   id="path845" />
	<path
   class="st0"
   d="m 136.237,186.996 -6.511,6.511 19.194,19.192 c 9.426,9.427 24.488,18.551 38.586,4.453 10.52,-10.521 8.106,-21.571 2.29,-30.423 -1.872,0.135 -53.559,0.267 -53.559,0.267"
   id="path847" />
	
	
	
	
	
	
</g>
</svg>
