<?xml version="1.0" encoding="UTF-8" standalone="no"?>
<svg
   xmlns:dc="http://purl.org/dc/elements/1.1/"
   xmlns:cc="http://creativecommons.org/ns#"
   xmlns:rdf="http://www.w3.org/1999/02/22-rdf-syntax-ns#"
   xmlns:svg="http://www.w3.org/2000/svg"
   xmlns="http://www.w3.org/2000/svg"
   xmlns:sodipodi="http://sodipodi.sourceforge.net/DTD/sodipodi-0.dtd"
   xmlns:inkscape="http://www.inkscape.org/namespaces/inkscape"
   version="1.1"
   id="Calque_1"
   x="0px"
   y="0px"
   viewBox="0 0 3855.1182 3855.1181"
   xml:space="preserve"
   sodipodi:docname="malt_new.svg"
   width="1020mm"
   height="1020mm"
   inkscape:version="1.0.2 (e86c8708, 2021-01-15)"><metadata
   id="metadata45"><rdf:RDF><cc:Work
       rdf:about=""><dc:format>image/svg+xml</dc:format><dc:type
         rdf:resource="http://purl.org/dc/dcmitype/StillImage" /><dc:title></dc:title></cc:Work></rdf:RDF></metadata><defs
   id="defs43" /><sodipodi:namedview
   pagecolor="#ffffff"
   bordercolor="#666666"
   borderopacity="1"
   objecttolerance="10"
   gridtolerance="10"
   guidetolerance="10"
   inkscape:pageopacity="0"
   inkscape:pageshadow="2"
   inkscape:window-width="1120"
   inkscape:window-height="639"
   id="namedview41"
   showgrid="false"
   inkscape:zoom="0.076148662"
   inkscape:cx="695.38148"
   inkscape:cy="2011.9936"
   inkscape:window-x="0"
   inkscape:window-y="25"
   inkscape:window-maximized="0"
   inkscape:current-layer="Calque_1"
   inkscape:document-rotation="0"
   units="mm"
   width="1020mm" />
<style
   type="text/css"
   id="style10">
	.st0{fill:#FC5656;}
</style>
<g
   id="g38"
   transform="matrix(20.122355,0,0,20.192658,-875.90275,-712.75533)"
   style="fill:#000000">
	<path
   class="st0"
   d="m 205.65717,64.089874 c -14.1,-14.1 -29.162,-4.974 -38.588,4.452 l -44.52,44.522996 -44.524999,44.524 c -9.426,9.425 -19.292,23.746 -4.452,38.584 14.84,14.843 29.160999,4.975 38.584999,-4.451 l 44.523,-44.523 44.523,-44.522 c 9.427,-9.426996 18.552,-24.488996 4.454,-38.586996"
   id="path12"
   style="fill:#000000" />
	<path
   class="st0"
   d="m 120.58417,60.442874 18.855,18.854 19.192,-19.192 c 1.303,-1.306 2.626,-2.518 3.957,-3.661 -2.01,-10.14 -7.796,-19.307 -23.158,-19.307 -15.391,0 -21.17,9.203 -23.168,19.365 1.436,1.243 2.871,2.489 4.322,3.941"
   id="path14"
   style="fill:#000000" />
	<path
   class="st0"
   d="m 158.62117,200.49587 -19.18,-19.181 -18.845,18.843 c -1.431,1.432 -2.855,2.74 -4.273,3.969 2.161,10.337 8.277,19.805 23.11,19.805 14.872,0 20.98,-9.519 23.127,-19.889 -1.319,-1.135 -2.64,-2.248 -3.939,-3.547"
   id="path16"
   style="fill:#000000" />
	<path
   class="st0"
   d="M 112.58817,106.14987 H 76.238171 c -13.329,0 -30.433,4.198 -30.433,24.136 0,14.877 9.522,20.986 19.894,23.132 1.228,-1.417 46.888999,-47.268 46.888999,-47.268"
   id="path18"
   style="fill:#000000" />
	<path
   class="st0"
   d="m 213.24017,107.11787 c -1.151,1.338 -46.907,47.305 -46.907,47.305 h 35.834 c 13.329,0 30.433,-3.149 30.433,-24.136 0,-15.389 -9.2,-21.171 -19.36,-23.169"
   id="path20"
   style="fill:#000000" />
	<path
   class="st0"
   d="m 124.49817,94.217874 6.494,-6.494 -18.843,-18.845 c -9.427,-9.425 -23.745999,-19.292 -38.585999,-4.452 -10.882,10.882 -8.465,21.473 -2.693,30.071 1.758,-0.131 53.627999,-0.28 53.627999,-0.28"
   id="path22"
   style="fill:#000000" />
	<path
   class="st0"
   d="m 154.37617,166.35487 -6.511,6.511 19.194,19.192 c 9.426,9.427 24.488,18.551 38.586,4.453 10.52,-10.521 8.106,-21.571 2.29,-30.423 -1.872,0.135 -53.559,0.267 -53.559,0.267"
   id="path24"
   style="fill:#000000" />
	
	
	
	
	
	
</g>
</svg>
